PathFileType	4	(X/Y/Z)	./trials/Ivanov/data/jump_js_1.trc
DataRate	CameraRate	NumFrames	NumMarkers	Units	OrigDataRate	OrigDataStartFrame	OrigNumFrames
400	400	5	71	mm	400	214	285
Frame#	Time	r_illiac			r_troch			r_asis			l_illiac			l_troch			l_asis			r_psis			sacrum			l_psis			r_thigh1			r_thigh2			r_thigh3			r_thigh4			rl_knee			rm_knee			r_shank1			r_shank2			r_shank3			r_shank4			r_heel			rl_ankle			rm_ankle			r_metatarsal5			r_metatarsal1			l_thigh1			l_thigh2			l_thigh3			l_thigh4			ll_knee			lm_knee			l_shank1			l_shank2			l_shank3			l_shank4			l_heel			ll_ankle			lm_ankle			l_metatarsal5			l_metatarsal1			back_down			neck			back_right			back_left			head_up			head_front			head_left			head_right			r_shoulder			r_humerus1			r_humerus2			r_humerus3			rl_elbow			rm_elbow			r_radius1			r_radius2			r_radius3			rl_wrist			rm_wrist			r_hand			l_shoulder			l_humerus1			l_humerus2			l_humerus3			ll_elbow			lm_elbow			l_radius1			l_radius2			l_radius3			ll_wrist			lm_wrist			l_hand		
		X1	Y1	Z1	X2	Y2	Z2	X3	Y3	Z3	X4	Y4	Z4	X5	Y5	Z5	X6	Y6	Z6	X7	Y7	Z7	X8	Y8	Z8	X9	Y9	Z9	X10	Y10	Z10	X11	Y11	Z11	X12	Y12	Z12	X13	Y13	Z13	X14	Y14	Z14	X15	Y15	Z15	X16	Y16	Z16	X17	Y17	Z17	X18	Y18	Z18	X19	Y19	Z19	X20	Y20	Z20	X21	Y21	Z21	X22	Y22	Z22	X23	Y23	Z23	X24	Y24	Z24	X25	Y25	Z25	X26	Y26	Z26	X27	Y27	Z27	X28	Y28	Z28	X29	Y29	Z29	X30	Y30	Z30	X31	Y31	Z31	X32	Y32	Z32	X33	Y33	Z33	X34	Y34	Z34	X35	Y35	Z35	X36	Y36	Z36	X37	Y37	Z37	X38	Y38	Z38	X39	Y39	Z39	X40	Y40	Z40	X41	Y41	Z41	X42	Y42	Z42	X43	Y43	Z43	X44	Y44	Z44	X45	Y45	Z45	X46	Y46	Z46	X47	Y47	Z47	X48	Y48	Z48	X49	Y49	Z49	X50	Y50	Z50	X51	Y51	Z51	X52	Y52	Z52	X53	Y53	Z53	X54	Y54	Z54	X55	Y55	Z55	X56	Y56	Z56	X57	Y57	Z57	X58	Y58	Z58	X59	Y59	Z59	X60	Y60	Z60	X61	Y61	Z61	X62	Y62	Z62	X63	Y63	Z63	X64	Y64	Z64	X65	Y65	Z65	X66	Y66	Z66	X67	Y67	Z67	X68	Y68	Z68	X69	Y69	Z69	X70	Y70	Z70	X71	Y71	Z71
214	0.5325	-324.912	1359.119	569.657	-365.527	1185.056	595.646	-263.959	1291.261	529.900	-332.081	1368.261	224.787	-399.940	1195.431	221.635	-276.428	1286.774	260.690	-436.249	1363.209	452.683	-430.728	1390.064	404.126	-443.792	1361.502	352.401	-347.990	1058.738	610.965	-271.604	1075.528	603.758	-256.001	950.630	612.890	-315.335	940.582	618.403	-292.791	802.507	614.564	-265.331	785.175	489.818	-368.598	681.252	627.044	-295.561	682.126	625.347	-299.452	570.372	624.049	-361.946	573.236	630.327	-430.271	361.658	567.055	-354.606	362.534	618.017	-312.183	367.498	522.103	-270.238	203.599	605.172	-237.909	220.824	522.303	-349.412	1081.915	187.895	-279.226	1095.481	194.172	-253.326	975.384	184.887	-321.200	960.779	180.778	-290.921	796.781	180.334	-262.009	758.209	312.922	-371.180	689.694	183.800	-302.291	686.033	168.852	-309.963	581.007	166.343	-368.254	578.815	178.974	-402.372	372.359	242.894	-338.427	363.231	180.125	-288.033	357.535	276.715	-262.865	206.401	160.490	-219.877	206.778	248.657	-403.813	1509.128	406.124	-312.254	1820.272	397.776	-365.516	1690.689	509.528	-381.488	1691.189	294.052	-156.890	2084.034	383.478	-30.039	2003.030	367.338	-141.963	1992.564	280.303	-132.437	1996.741	471.179	-175.430	1820.527	561.112	-175.284	1654.103	657.071	-244.983	1743.803	723.359	-237.574	1640.434	740.761	-277.332	1556.311	793.505	-375.459	1581.150	760.703	-249.867	1478.038	695.104	-300.703	1441.716	800.060	-285.565	1387.696	713.885	-331.629	1350.160	624.356	-307.319	1302.273	702.522	-280.451	1295.777	621.962	-241.637	1849.137	227.742	-205.433	1684.189	140.472	-297.581	1759.199	83.363	-275.563	1661.754	69.087	-328.065	1563.276	4.029	-404.968	1588.957	57.958	-293.187	1467.983	123.964	-324.104	1413.081	8.734	-319.123	1369.539	100.855	-357.262	1342.231	172.653	-328.677	1309.638	93.407	-310.271	1287.929	159.458
215	0.5350	-326.655	1363.274	569.681	-366.085	1189.328	595.223	-264.802	1295.495	530.477	-333.468	1371.969	225.218	-399.956	1199.341	221.560	-276.883	1290.820	260.596	-437.298	1367.037	452.216	-431.255	1393.713	404.043	-444.403	1365.416	352.250	-347.590	1062.858	611.010	-270.925	1080.049	603.663	-255.165	954.978	612.802	-314.516	944.873	618.483	-291.235	807.084	614.674	-264.633	789.408	489.478	-366.757	686.357	628.247	-293.869	686.509	624.958	-298.099	575.145	623.924	-360.919	578.185	631.213	-431.471	366.731	567.710	-355.331	367.158	618.026	-313.617	372.179	521.801	-271.977	207.804	604.034	-240.215	225.158	520.970	-348.681	1086.358	186.626	-279.445	1099.996	193.834	-252.632	980.302	184.293	-320.393	965.126	180.125	-289.072	801.506	180.194	-259.428	763.016	312.231	-369.984	695.069	183.573	-300.992	690.860	168.684	-309.258	585.870	166.411	-367.658	583.991	178.992	-403.409	378.725	242.567	-339.212	368.268	180.444	-289.487	362.512	277.497	-265.330	210.432	162.304	-223.053	210.781	250.811	-404.350	1513.306	406.504	-312.468	1824.357	397.824	-365.848	1694.619	510.241	-381.634	1695.343	294.177	-156.498	2088.145	383.152	-29.839	2006.943	367.168	-141.682	1996.577	280.075	-132.392	2000.955	470.996	-175.340	1824.244	561.371	-175.466	1657.431	656.966	-244.630	1747.260	723.648	-237.463	1643.882	740.888	-277.031	1559.692	793.563	-375.455	1584.455	761.095	-250.187	1481.735	694.780	-300.474	1445.291	799.961	-285.664	1391.412	713.570	-332.579	1354.086	624.179	-307.440	1305.922	702.079	-280.797	1299.894	621.431	-241.975	1853.295	227.701	-205.612	1688.136	140.773	-297.354	1763.162	83.091	-275.504	1665.683	69.143	-328.139	1567.158	3.973	-405.021	1593.081	57.872	-293.537	1471.853	124.042	-324.467	1416.866	8.798	-319.488	1373.504	100.913	-357.836	1346.308	172.706	-329.246	1313.573	93.464	-310.892	1292.074	159.454
216	0.5375	-328.601	1367.270	569.532	-366.764	1193.459	594.882	-265.567	1299.600	531.109	-334.869	1375.668	225.826	-399.934	1203.252	221.379	-277.384	1295.012	260.570	-438.585	1370.596	452.047	-431.960	1397.497	403.999	-444.882	1369.095	352.011	-347.094	1066.933	611.108	-270.527	1084.432	603.432	-254.392	959.469	612.719	-313.666	949.064	618.619	-289.748	811.555	614.785	-264.170	793.529	489.024	-365.026	691.148	629.088	-292.297	690.812	624.647	-297.063	579.542	623.627	-359.789	582.843	631.900	-432.568	371.716	568.389	-356.056	371.672	618.021	-315.015	376.685	521.479	-273.544	211.883	603.103	-242.277	229.181	519.811	-349.603	1090.225	187.024	-279.643	1104.768	193.401	-252.142	985.011	183.795	-319.795	969.500	179.538	-287.292	806.148	180.080	-257.181	767.751	311.616	-368.696	700.269	183.253	-299.744	695.696	168.624	-308.581	590.768	166.535	-367.085	589.200	178.919	-404.315	384.783	242.265	-339.893	373.267	180.706	-290.843	367.515	278.161	-267.524	214.434	164.093	-226.026	215.058	252.989	-404.886	1517.515	406.859	-313.023	1828.646	397.971	-366.165	1698.555	510.907	-381.892	1699.779	294.276	-156.008	2092.187	382.843	-29.631	2010.814	367.009	-141.398	2000.548	279.818	-132.178	2004.964	470.748	-175.227	1827.771	561.601	-175.527	1660.885	656.911	-244.338	1750.597	723.885	-237.349	1647.298	740.954	-276.728	1563.127	793.585	-375.324	1588.004	761.619	-250.436	1485.295	694.449	-300.227	1448.615	799.785	-285.870	1394.968	713.248	-333.256	1357.944	624.047	-307.632	1309.669	701.690	-281.445	1303.995	620.995	-242.236	1857.385	227.669	-205.795	1692.035	141.133	-296.990	1767.174	82.788	-275.405	1669.516	69.251	-328.051	1571.061	3.910	-405.034	1597.272	57.550	-293.867	1475.630	124.139	-324.681	1420.830	8.895	-319.995	1377.339	101.024	-358.471	1350.290	172.763	-330.024	1317.291	93.215	-311.347	1296.222	159.504
217	0.5400	-330.393	1371.050	569.452	-367.361	1197.546	594.535	-266.337	1303.669	531.677	-337.608	1378.834	227.195	-399.905	1207.100	221.190	-277.648	1299.276	260.482	-439.557	1374.161	451.707	-432.604	1401.186	403.964	-445.513	1372.911	351.862	-346.576	1070.915	611.185	-270.129	1088.700	603.053	-253.572	963.763	612.503	-312.766	953.241	618.735	-288.318	815.883	614.789	-263.790	797.602	488.486	-363.243	695.960	629.994	-290.675	695.152	624.276	-296.079	583.814	623.246	-358.691	587.372	632.516	-433.527	376.540	568.905	-356.664	376.137	618.017	-316.277	381.150	521.206	-274.999	216.004	602.273	-244.354	233.593	518.896	-349.068	1094.549	186.026	-279.941	1109.028	193.296	-251.674	989.738	183.331	-319.338	973.794	178.981	-285.679	810.708	179.984	-255.316	772.491	311.063	-367.510	705.401	182.868	-298.533	700.478	168.600	-307.876	595.637	166.637	-366.427	594.436	178.719	-405.194	390.731	241.798	-340.462	378.121	180.893	-292.167	372.432	278.735	-269.623	218.362	165.885	-228.829	219.277	255.105	-405.414	1521.610	407.207	-313.192	1832.742	398.051	-366.491	1702.496	511.473	-382.271	1704.215	294.433	-155.639	2096.277	382.486	-29.416	2014.715	366.876	-141.082	2004.415	279.551	-132.087	2008.953	470.516	-175.120	1831.272	561.839	-175.719	1663.959	656.735	-243.998	1754.037	724.107	-237.248	1650.530	740.988	-276.459	1566.481	793.586	-375.228	1591.510	762.001	-250.788	1488.906	694.118	-300.010	1452.045	799.635	-286.138	1398.573	712.921	-333.983	1361.738	623.882	-307.802	1313.135	701.235	-281.943	1308.074	620.547	-242.513	1861.371	227.656	-205.977	1695.823	141.551	-296.544	1770.976	82.437	-275.192	1673.181	69.365	-327.856	1574.890	3.867	-405.051	1601.444	57.186	-294.264	1479.460	124.320	-324.884	1424.637	9.014	-320.485	1381.181	101.148	-359.081	1354.302	172.859	-330.580	1321.097	93.322	-312.018	1300.397	159.536
218	0.5425	-332.012	1374.842	569.463	-367.786	1201.450	594.301	-267.017	1307.664	532.214	-339.005	1382.366	227.827	-399.777	1211.032	220.942	-278.036	1303.536	260.468	-440.390	1377.483	451.472	-433.159	1404.698	403.979	-445.941	1376.537	351.811	-346.024	1074.833	611.262	-269.733	1092.869	602.603	-252.691	967.956	612.237	-311.836	957.303	618.807	-286.945	820.058	614.723	-263.422	801.645	487.888	-361.519	700.272	630.633	-289.129	699.240	623.880	-295.059	588.017	622.949	-357.572	591.817	633.074	-434.523	381.272	569.450	-357.239	380.524	618.057	-317.558	385.542	520.780	-276.430	220.076	601.768	-246.054	237.713	518.138	-349.813	1098.409	186.199	-280.229	1113.369	193.214	-251.516	993.954	183.155	-318.871	977.938	178.137	-284.329	815.224	179.926	-253.733	777.052	310.705	-366.399	710.534	182.456	-297.363	705.133	168.658	-306.968	600.421	166.703	-365.724	599.484	178.386	-405.920	396.399	241.206	-340.932	382.904	181.018	-293.412	377.278	279.224	-271.441	222.261	167.614	-231.291	223.478	257.163	-405.835	1525.554	407.611	-313.458	1836.842	398.125	-366.818	1706.146	511.764	-382.422	1708.513	294.628	-155.154	2100.164	382.151	-29.163	2018.521	366.758	-140.749	2008.283	279.276	-131.849	2012.902	470.274	-174.986	1834.821	562.072	-175.743	1667.242	656.628	-243.682	1757.401	724.298	-237.108	1653.818	741.030	-276.218	1569.790	793.561	-374.964	1595.158	762.606	-251.171	1492.548	693.786	-299.840	1455.514	799.529	-286.261	1402.007	712.542	-334.711	1365.434	623.725	-308.098	1316.706	700.820	-282.586	1312.057	620.159	-242.680	1865.296	227.598	-206.098	1699.431	141.997	-295.999	1774.798	82.080	-275.035	1676.808	69.457	-327.782	1578.603	3.851	-405.140	1605.542	56.693	-294.722	1483.262	124.487	-325.021	1428.428	9.117	-320.906	1385.019	101.315	-359.733	1358.256	172.890	-331.131	1324.889	93.541	-312.462	1304.536	159.578
